<svg width="13" height="13" viewBox="0 0 13 13" fill="none" xmlns="http://www.w3.org/2000/svg">
<mask id="path-1-inside-1_12_148" fill="white">
<path fill-rule="evenodd" clip-rule="evenodd" d="M7 0H6V6H0V7H6V13H7V7H13V6H7V0Z"/>
</mask>
<path fill-rule="evenodd" clip-rule="evenodd" d="M7 0H6V6H0V7H6V13H7V7H13V6H7V0Z" fill="#FF6C00"/>
<path d="M6 0V-1H5V0H6ZM7 0H8V-1H7V0ZM6 6V7H7V6H6ZM0 6V5H-1V6H0ZM0 7H-1V8H0V7ZM6 7H7V6H6V7ZM6 13H5V14H6V13ZM7 13V14H8V13H7ZM7 7V6H6V7H7ZM13 7V8H14V7H13ZM13 6H14V5H13V6ZM7 6H6V7H7V6ZM6 1H7V-1H6V1ZM7 6V0H5V6H7ZM0 7H6V5H0V7ZM1 7V6H-1V7H1ZM6 6H0V8H6V6ZM7 13V7H5V13H7ZM7 12H6V14H7V12ZM6 7V13H8V7H6ZM13 6H7V8H13V6ZM12 6V7H14V6H12ZM7 7H13V5H7V7ZM6 0V6H8V0H6Z" fill="black" mask="url(#path-1-inside-1_12_148)"/>
</svg>
